<svg xmlns="http://www.w3.org/2000/svg" viewBox="0 0 800 430" role="img" aria-labelledby="title description">
<title id="title">Ядро пользователей по неделям</title>
<desc id="description">Все авторы за 14 дней: от 54 до 79; Ядро: 3+ вклада за 14 дней: от 24 до 43 Условные данные для примера.</desc>
<style>text{font-family:Arial,'Segoe UI',sans-serif;font-size:18px;fill:#464960}.title{font-size:24px;font-weight:700;fill:#17182d}.small{font-size:16px}.value{font-weight:700;fill:#17182d}</style>
<rect x="1" y="1" width="798" height="428" fill="#ffffff" rx="14" stroke="#dfe0ec"/>
<text x="28" y="40" class="title">Ядро пользователей по неделям</text>
<text x="28" y="410" class="small">Условные данные · пример чтения метрики</text>
<rect x="30" y="60" width="14" height="14" fill="#9a9eb8" rx="3"/><text x="54" y="73" >Все авторы за 14 дней</text><rect x="30" y="86" width="14" height="14" fill="#6366f1" rx="3"/><text x="54" y="99" >Ядро: 3+ вклада за 14 дней</text><path d="M68 350H766" stroke="#e6e7f0"/><text x="56" y="356" text-anchor="end" class="small">0</text><path d="M68 296.75H766" stroke="#e6e7f0"/><text x="56" y="302.75" text-anchor="end" class="small">25</text><path d="M68 243.5H766" stroke="#e6e7f0"/><text x="56" y="249.5" text-anchor="end" class="small">50</text><path d="M68 190.25H766" stroke="#e6e7f0"/><text x="56" y="196.25" text-anchor="end" class="small">75</text><path d="M68 137H766" stroke="#e6e7f0"/><text x="56" y="143" text-anchor="end" class="small">100</text><text x="68" y="379" text-anchor="middle" class="small">16.03</text><text x="207.6" y="379" text-anchor="middle" class="small">20.04</text><text x="347.2" y="379" text-anchor="middle" class="small">25.05</text><text x="486.8" y="379" text-anchor="middle" class="small">29.06</text><text x="626.4" y="379" text-anchor="middle" class="small">03.08</text><text x="766" y="379" text-anchor="middle" class="small">07.09</text><polyline points="68.00,234.98 95.92,230.72 123.84,230.72 151.76,239.24 179.68,230.72 207.60,222.20 235.52,224.33 263.44,220.07 291.36,217.94 319.28,224.33 347.20,215.81 375.12,213.68 403.04,215.81 430.96,205.16 458.88,213.68 486.80,207.29 514.72,194.51 542.64,196.64 570.56,147.65 598.48,173.21 626.40,179.60 654.32,183.86 682.24,194.51 710.16,190.25 738.08,181.73 766.00,181.73" fill="none" stroke="#9a9eb8" stroke-width="3" stroke-linejoin="round" stroke-linecap="round"/><circle cx="766" cy="181.73" r="5" fill="#9a9eb8"/><polyline points="68.00,298.88 95.92,290.36 123.84,290.36 151.76,286.10 179.68,286.10 207.60,288.23 235.52,288.23 263.44,281.84 291.36,277.58 319.28,283.97 347.20,275.45 375.12,277.58 403.04,275.45 430.96,273.32 458.88,277.58 486.80,273.32 514.72,269.06 542.64,269.06 570.56,254.15 598.48,264.80 626.40,260.54 654.32,264.80 682.24,266.93 710.16,260.54 738.08,258.41 766.00,258.41" fill="none" stroke="#6366f1" stroke-width="3" stroke-linejoin="round" stroke-linecap="round"/><circle cx="766" cy="258.40999999999997" r="5" fill="#6366f1"/>
</svg>
