<svg xmlns="http://www.w3.org/2000/svg" viewBox="0 0 800 430" role="img" aria-labelledby="title description">
<title id="title">Активация и возврат новичков</title>
<desc id="description">Пришли впервые: от 5 до 6; Сделали вклад за 14 дней: от 3 до 4; Вернулись на 2–4-й неделе: от 3 до 4 Условные данные для примера.</desc>
<style>text{font-family:Arial,'Segoe UI',sans-serif;font-size:18px;fill:#464960}.title{font-size:24px;font-weight:700;fill:#17182d}.small{font-size:16px}.value{font-weight:700;fill:#17182d}</style>
<rect x="1" y="1" width="798" height="428" fill="#ffffff" rx="14" stroke="#dfe0ec"/>
<text x="28" y="40" class="title">Активация и возврат новичков</text>
<text x="28" y="410" class="small">Условные данные · пример чтения метрики</text>
<rect x="30" y="60" width="14" height="14" fill="#9a9eb8" rx="3"/><text x="54" y="73" >Пришли впервые</text><rect x="30" y="86" width="14" height="14" fill="#159467" rx="3"/><text x="54" y="99" >Сделали вклад за 14 дней</text><rect x="30" y="112" width="14" height="14" fill="#6366f1" rx="3"/><text x="54" y="125" >Вернулись на 2–4-й неделе</text><path d="M68 350H766" stroke="#e6e7f0"/><text x="56" y="356" text-anchor="end" class="small">0</text><path d="M68 303.25H766" stroke="#e6e7f0"/><text x="56" y="309.25" text-anchor="end" class="small">15</text><path d="M68 256.5H766" stroke="#e6e7f0"/><text x="56" y="262.5" text-anchor="end" class="small">30</text><path d="M68 209.75H766" stroke="#e6e7f0"/><text x="56" y="215.75" text-anchor="end" class="small">45</text><path d="M68 163H766" stroke="#e6e7f0"/><text x="56" y="169" text-anchor="end" class="small">60</text><text x="97.08333333333333" y="379" text-anchor="middle" class="small">25.05</text><text x="213.41666666666669" y="379" text-anchor="middle" class="small">08.06</text><text x="329.75" y="379" text-anchor="middle" class="small">22.06</text><text x="504.25" y="379" text-anchor="middle" class="small">13.07</text><text x="620.5833333333333" y="379" text-anchor="middle" class="small">27.07</text><text x="736.9166666666667" y="379" text-anchor="middle" class="small">10.08</text><rect x="75.27083333333333" y="334.4166666666667" width="13.541666666666666" height="15.583333333333314" fill="#9a9eb8" rx="2"/><rect x="133.4375" y="328.18333333333334" width="13.541666666666666" height="21.816666666666663" fill="#9a9eb8" rx="2"/><rect x="191.60416666666669" y="337.53333333333336" width="13.541666666666666" height="12.46666666666664" fill="#9a9eb8" rx="2"/><rect x="249.77083333333337" y="331.3" width="13.541666666666666" height="18.69999999999999" fill="#9a9eb8" rx="2"/><rect x="307.9375" y="325.06666666666666" width="13.541666666666666" height="24.933333333333337" fill="#9a9eb8" rx="2"/><rect x="366.10416666666663" y="334.4166666666667" width="13.541666666666666" height="15.583333333333314" fill="#9a9eb8" rx="2"/><rect x="424.2708333333333" y="331.3" width="13.541666666666666" height="18.69999999999999" fill="#9a9eb8" rx="2"/><rect x="482.4375" y="321.95" width="13.541666666666666" height="28.05000000000001" fill="#9a9eb8" rx="2"/><rect x="540.6041666666667" y="212.86666666666667" width="13.541666666666666" height="137.13333333333333" fill="#9a9eb8" rx="2"/><rect x="598.7708333333333" y="312.6" width="13.541666666666666" height="37.39999999999998" fill="#9a9eb8" rx="2"/><rect x="656.9375" y="328.18333333333334" width="13.541666666666666" height="21.816666666666663" fill="#9a9eb8" rx="2"/><rect x="715.1041666666667" y="331.3" width="13.541666666666666" height="18.69999999999999" fill="#9a9eb8" rx="2"/><rect x="89.8125" y="340.65" width="13.541666666666666" height="9.350000000000023" fill="#159467" rx="2"/><rect x="147.97916666666666" y="337.53333333333336" width="13.541666666666666" height="12.46666666666664" fill="#159467" rx="2"/><rect x="206.14583333333334" y="340.65" width="13.541666666666666" height="9.350000000000023" fill="#159467" rx="2"/><rect x="264.31250000000006" y="337.53333333333336" width="13.541666666666666" height="12.46666666666664" fill="#159467" rx="2"/><rect x="322.4791666666667" y="334.4166666666667" width="13.541666666666666" height="15.583333333333314" fill="#159467" rx="2"/><rect x="380.6458333333333" y="340.65" width="13.541666666666666" height="9.350000000000023" fill="#159467" rx="2"/><rect x="438.8125" y="337.53333333333336" width="13.541666666666666" height="12.46666666666664" fill="#159467" rx="2"/><rect x="496.9791666666667" y="331.3" width="13.541666666666666" height="18.69999999999999" fill="#159467" rx="2"/><rect x="555.1458333333334" y="290.78333333333336" width="13.541666666666666" height="59.21666666666664" fill="#159467" rx="2"/><rect x="613.3124999999999" y="328.18333333333334" width="13.541666666666666" height="21.816666666666663" fill="#159467" rx="2"/><rect x="671.4791666666666" y="337.53333333333336" width="13.541666666666666" height="12.46666666666664" fill="#159467" rx="2"/><rect x="729.6458333333334" y="337.53333333333336" width="13.541666666666666" height="12.46666666666664" fill="#159467" rx="2"/><rect x="104.35416666666666" y="340.65" width="13.541666666666666" height="9.350000000000023" fill="#6366f1" rx="2"/><rect x="162.52083333333334" y="337.53333333333336" width="13.541666666666666" height="12.46666666666664" fill="#6366f1" rx="2"/><rect x="220.68750000000003" y="343.76666666666665" width="13.541666666666666" height="6.2333333333333485" fill="#6366f1" rx="2"/><rect x="278.8541666666667" y="337.53333333333336" width="13.541666666666666" height="12.46666666666664" fill="#6366f1" rx="2"/><rect x="337.0208333333333" y="334.4166666666667" width="13.541666666666666" height="15.583333333333314" fill="#6366f1" rx="2"/><rect x="395.18749999999994" y="340.65" width="13.541666666666666" height="9.350000000000023" fill="#6366f1" rx="2"/><rect x="453.35416666666663" y="337.53333333333336" width="13.541666666666666" height="12.46666666666664" fill="#6366f1" rx="2"/><rect x="511.5208333333333" y="334.4166666666667" width="13.541666666666666" height="15.583333333333314" fill="#6366f1" rx="2"/><rect x="569.6875000000001" y="303.25" width="13.541666666666666" height="46.75" fill="#6366f1" rx="2"/><rect x="627.8541666666666" y="331.3" width="13.541666666666666" height="18.69999999999999" fill="#6366f1" rx="2"/><rect x="686.0208333333334" y="337.53333333333336" width="13.541666666666666" height="12.46666666666664" fill="#6366f1" rx="2"/><rect x="744.1875000000001" y="337.53333333333336" width="13.541666666666666" height="12.46666666666664" fill="#6366f1" rx="2"/>
</svg>
